<mxfile host="app.diagrams.net" modified="2021-08-17T10:39:40.901Z" agent="5.0 (Windows NT 6.1; Win64; x64) AppleWebKit/537.36 (KHTML, like Gecko) Chrome/92.0.4515.131 Safari/537.36" etag="02xvhGFN7MThToXqyrro" version="14.9.7" type="github">
  <diagram id="C5RBs43oDa-KdzZeNtuy" name="Page-1">
    <mxGraphModel dx="446" dy="773" grid="1" gridSize="10" guides="1" tooltips="1" connect="1" arrows="1" fold="1" page="1" pageScale="1" pageWidth="827" pageHeight="1169" math="0" shadow="0">
      <root>
        <mxCell id="WIyWlLk6GJQsqaUBKTNV-0" />
        <mxCell id="WIyWlLk6GJQsqaUBKTNV-1" parent="WIyWlLk6GJQsqaUBKTNV-0" />
        <mxCell id="GqkgMoYcaATxn3jfBafy-2" value="" style="edgeStyle=orthogonalEdgeStyle;rounded=0;orthogonalLoop=1;jettySize=auto;html=1;" edge="1" parent="WIyWlLk6GJQsqaUBKTNV-1" source="GqkgMoYcaATxn3jfBafy-0" target="GqkgMoYcaATxn3jfBafy-1">
          <mxGeometry relative="1" as="geometry" />
        </mxCell>
        <mxCell id="GqkgMoYcaATxn3jfBafy-0" value="شروع" style="ellipse;whiteSpace=wrap;html=1;aspect=fixed;" vertex="1" parent="WIyWlLk6GJQsqaUBKTNV-1">
          <mxGeometry x="190" y="80" width="80" height="80" as="geometry" />
        </mxCell>
        <mxCell id="GqkgMoYcaATxn3jfBafy-4" value="" style="edgeStyle=orthogonalEdgeStyle;rounded=0;orthogonalLoop=1;jettySize=auto;html=1;" edge="1" parent="WIyWlLk6GJQsqaUBKTNV-1" source="GqkgMoYcaATxn3jfBafy-1" target="GqkgMoYcaATxn3jfBafy-3">
          <mxGeometry relative="1" as="geometry" />
        </mxCell>
        <mxCell id="GqkgMoYcaATxn3jfBafy-1" value="واحد تبلیغات" style="shape=process;whiteSpace=wrap;html=1;backgroundOutline=1;" vertex="1" parent="WIyWlLk6GJQsqaUBKTNV-1">
          <mxGeometry x="170" y="190" width="120" height="60" as="geometry" />
        </mxCell>
        <mxCell id="GqkgMoYcaATxn3jfBafy-6" value="" style="edgeStyle=orthogonalEdgeStyle;rounded=0;orthogonalLoop=1;jettySize=auto;html=1;" edge="1" parent="WIyWlLk6GJQsqaUBKTNV-1" source="GqkgMoYcaATxn3jfBafy-3" target="GqkgMoYcaATxn3jfBafy-5">
          <mxGeometry relative="1" as="geometry" />
        </mxCell>
        <mxCell id="GqkgMoYcaATxn3jfBafy-3" value="واحد فروش" style="shape=process;whiteSpace=wrap;html=1;backgroundOutline=1;" vertex="1" parent="WIyWlLk6GJQsqaUBKTNV-1">
          <mxGeometry x="155" y="300" width="150" height="60" as="geometry" />
        </mxCell>
        <mxCell id="GqkgMoYcaATxn3jfBafy-5" value="" style="shape=process;whiteSpace=wrap;html=1;backgroundOutline=1;" vertex="1" parent="WIyWlLk6GJQsqaUBKTNV-1">
          <mxGeometry x="170" y="410" width="120" height="60" as="geometry" />
        </mxCell>
      </root>
    </mxGraphModel>
  </diagram>
</mxfile>
